Coordinates
version=1
nRows=20
nColumns=38
inDegrees=no

Units are S.I. units (second, meters, Newtons, ...)
If the header above contains a line with 'inDegrees', this indicates whether rotational values are in degrees (yes) or radians (no).

endheader
time	pelvis_tilt	pelvis_list	pelvis_rotation	pelvis_tx	pelvis_ty	pelvis_tz	hip_flexion_r	hip_adduction_r	hip_rotation_r	knee_angle_r	ankle_angle_r	subtalar_angle_r	mtp_angle_r	hip_flexion_l	hip_adduction_l	hip_rotation_l	knee_angle_l	ankle_angle_l	subtalar_angle_l	mtp_angle_l	lumbar_extension	lumbar_bending	lumbar_rotation	arm_flex_r	arm_add_r	arm_rot_r	elbow_flex_r	pro_sup_r	wrist_flex_r	wrist_dev_r	arm_flex_l	arm_add_l	arm_rot_l	elbow_flex_l	pro_sup_l	wrist_flex_l	wrist_dev_l
1.39	3.04882	1.29192	-1.51331	0.748224	0.732332	1.03273	-0.210214	0.0665481	-0.207776	0.554552	-0.0712197	0	0	0.125011	-0.0769284	-0.373151	0.6581	-0.113934	0	0	-0.59306	0.149811	0.598344	-0.573585	-0.407641	-0.757014	1.9907	0.518042	0	0	0.713888	-0.157623	0.764014	0.930122	0.6407	0	0
1.4	3.05319	1.29699	-1.51612	0.748147	0.742305	1.03164	-0.218761	0.0650893	-0.210329	0.548642	-0.0662884	0	0	0.129576	-0.0633565	-0.35169	0.59471	-0.121828	0	0	-0.5861	0.14892	0.593738	-0.568564	-0.409824	-0.753652	1.98799	0.525682	0	0	0.712499	-0.158208	0.760182	0.929451	0.6433	0	0
1.41	3.05636	1.30186	-1.51818	0.748072	0.752304	1.03032	-0.225882	0.0632932	-0.214161	0.546558	-0.0615421	0	0	0.131841	-0.0503434	-0.328	0.52961	-0.130209	0	0	-0.580963	0.147827	0.593203	-0.569373	-0.41173	-0.754888	1.98888	0.513804	0	0	0.713118	-0.156883	0.759045	0.928936	0.644648	0	0
1.42	3.05549	1.30724	-1.51687	0.748039	0.762413	1.0287	-0.23185	0.0625876	-0.216637	0.545687	-0.056904	0	0	0.133133	-0.0399213	-0.303225	0.464366	-0.139081	0	0	-0.575606	0.147354	0.594495	-0.570901	-0.412035	-0.757371	1.99055	0.51262	0	0	0.713962	-0.1553	0.758611	0.928867	0.645057	0	0
1.43	3.05242	1.31319	-1.51407	0.748025	0.772635	1.02689	-0.236748	0.0622949	-0.21721	0.54607	-0.0519978	0	0	0.13393	-0.0314351	-0.280191	0.401349	-0.148364	0	0	-0.566571	0.14824	0.588658	-0.562594	-0.417253	-0.748581	1.98626	0.514075	0	0	0.711013	-0.159116	0.75406	0.929155	0.645438	0	0
1.44	3.04687	1.31825	-1.50979	0.748016	0.782913	1.02496	-0.242219	0.0624168	-0.216131	0.547247	-0.0481966	0	0	0.135455	-0.0263455	-0.266711	0.348535	-0.154856	0	0	-0.561427	0.148286	0.591106	-0.563689	-0.418705	-0.749913	1.98739	0.510912	0	0	0.711928	-0.15856	0.754818	0.929609	0.645408	0	0
1.45	3.04148	1.32241	-1.50618	0.747996	0.793288	1.02301	-0.248425	0.0623268	-0.214387	0.549043	-0.0433542	0	0	0.135379	-0.0215738	-0.255728	0.298985	-0.16483	0	0	-0.556639	0.148265	0.592264	-0.562386	-0.420913	-0.748791	1.98722	0.512076	0	0	0.712306	-0.15893	0.754182	0.929652	0.646588	0	0
1.46	3.03507	1.32599	-1.5024	0.747955	0.803821	1.02098	-0.254936	0.0621855	-0.211553	0.551632	-0.0389602	0	0	0.135471	-0.0185294	-0.249829	0.257194	-0.174975	0	0	-0.551098	0.148731	0.591004	-0.555164	-0.422117	-0.742197	1.98324	0.528258	0	0	0.711492	-0.161167	0.752188	0.928896	0.646855	0	0
1.47	3.03277	1.32768	-1.5028	0.747858	0.814504	1.01904	-0.263587	0.0607163	-0.209559	0.55459	-0.0330098	0	0	0.131923	-0.0142692	-0.242476	0.217564	-0.18978	0	0	-0.549941	0.146971	0.596262	-0.556736	-0.419456	-0.746298	1.98486	0.547594	0	0	0.715238	-0.159047	0.75635	0.926902	0.645284	0	0
1.48	3.03264	1.3281	-1.50593	0.747784	0.825396	1.01713	-0.273664	0.0582933	-0.206952	0.558129	-0.0295845	0	0	0.131479	-0.0121295	-0.247788	0.198627	-0.194303	0	0	-0.548753	0.144841	0.598854	-0.555407	-0.419551	-0.745668	1.98427	0.550077	0	0	0.717896	-0.158744	0.759117	0.924316	0.644918	0	0
1.49	3.03574	1.32769	-1.51231	0.747716	0.836494	1.01529	-0.28448	0.0546229	-0.204749	0.562666	-0.0281802	0	0	0.131841	-0.0101989	-0.25634	0.191942	-0.194935	0	0	-0.546734	0.142414	0.597973	-0.549687	-0.42077	-0.740178	1.98086	0.55244	0	0	0.719352	-0.160018	0.76013	0.920264	0.644815	0	0
1.5	3.04117	1.32472	-1.5214	0.747711	0.847703	1.01363	-0.298094	0.0503105	-0.202023	0.567175	-0.0257569	0	0	0.131701	-0.00969442	-0.271635	0.199068	-0.192819	0	0	-0.55	0.138067	0.603722	-0.551967	-0.417991	-0.743536	1.98254	0.550255	0	0	0.725525	-0.158056	0.767989	0.916486	0.641096	0	0
1.51	3.04718	1.32202	-1.53148	0.747839	0.859168	1.01197	-0.311082	0.0458774	-0.198126	0.572472	-0.0252049	0	0	0.131703	-0.0100014	-0.286428	0.213022	-0.192244	0	0	-0.549616	0.134205	0.602328	-0.544475	-0.41857	-0.735829	1.97782	0.553044	0	0	0.727636	-0.160518	0.770274	0.911886	0.639706	0	0
1.52	3.05038	1.31839	-1.53935	0.748044	0.870837	1.01027	-0.324086	0.0414912	-0.193729	0.579737	-0.0262022	0	0	0.131453	-0.0128974	-0.302665	0.236563	-0.191214	0	0	-0.55338	0.129095	0.610265	-0.547954	-0.413365	-0.7402	1.9797	0.555347	0	0	0.733446	-0.157329	0.77641	0.907577	0.639046	0	0
1.53	3.04857	1.31502	-1.54297	0.748306	0.882739	1.00847	-0.336228	0.0378042	-0.187577	0.588176	-0.0285985	0	0	0.131138	-0.0184008	-0.316849	0.266618	-0.190099	0	0	-0.555128	0.125549	0.615099	-0.547094	-0.410953	-0.738429	1.97869	0.556578	0	0	0.7362	-0.157194	0.779022	0.904369	0.638559	0	0
1.54	3.04352	1.31158	-1.54381	0.748611	0.894863	1.0066	-0.347915	0.0343883	-0.180846	0.598192	-0.0308458	0	0	0.128017	-0.0245327	-0.323487	0.296598	-0.192226	0	0	-0.554971	0.123467	0.61571	-0.54127	-0.412254	-0.729436	1.97433	0.555151	0	0	0.735615	-0.160901	0.777753	0.902638	0.639242	0	0
1.55	3.03266	1.30772	-1.54014	0.748926	0.907234	1.00457	-0.359099	0.0314004	-0.172633	0.610581	-0.0355468	0	0	0.124617	-0.034038	-0.333921	0.335136	-0.190131	0	0	-0.558057	0.120992	0.62596	-0.546618	-0.408874	-0.731873	1.97622	0.55719	0	0	0.737977	-0.160207	0.781028	0.903133	0.639517	0	0
1.56	3.02369	1.30333	-1.53985	0.749147	0.919823	1.00259	-0.36946	0.026285	-0.164187	0.625741	-0.0420725	0	0	0.117848	-0.0418185	-0.345176	0.366688	-0.191159	0	0	-0.560081	0.118349	0.63348	-0.547996	-0.408247	-0.729161	1.97518	0.559293	0	0	0.737621	-0.162424	0.781749	0.904947	0.640496	0	0
1.57	3.02984	1.29794	-1.55553	0.749192	0.932321	1.00116	-0.378647	0.0153489	-0.155865	0.644832	-0.0511958	0	0	0.108201	-0.0422447	-0.359201	0.380853	-0.20254	0	0	-0.561203	0.112333	0.632547	-0.539305	-0.41239	-0.715852	1.96772	0.560721	0	0	0.733232	-0.169612	0.776503	0.907997	0.642254	0	0
1.58	3.05303	1.29064	-1.58767	0.749093	0.944346	1.00057	-0.386374	-0.00093384	-0.146223	0.669085	-0.0668543	0	0	0.100349	-0.0375635	-0.378454	0.392023	-0.229143	0	0	-0.570219	0.0988084	0.640158	-0.541908	-0.408146	-0.718566	1.96753	0.571975	0	0	0.734765	-0.168595	0.775025	0.911069	0.647626	0	0
